<svg xmlns="http://www.w3.org/2000/svg" xmlns:xlink="http://www.w3.org/1999/xlink" width="79.15606935141591" height="98.37572259433591"><rect id="backgroundrect" width="100%" height="100%" x="0" y="0" fill="none" stroke="none" class="selected" style=""/>

<g class="currentLayer" style=""><title>Layer 1</title><path fill-rule="evenodd" fill="rgb(235, 134, 136)" d="M69.875,59.817 L47.655,59.817 L49.975,67.900 L55.250,67.900 L55.250,71.133 L22.750,71.133 L22.750,67.900 L28.025,67.900 L30.345,59.817 L8.125,59.817 C3.640,59.811 0.005,56.195 -0.000,51.733 L-0.000,8.084 C0.005,3.622 3.640,0.005 8.125,-0.000 L69.875,-0.000 C74.360,0.005 77.995,3.622 78.000,8.084 L78.000,51.733 C77.995,56.195 74.360,59.811 69.875,59.817 ZM46.595,67.900 L44.275,59.817 L33.725,59.817 L31.405,67.900 L46.595,67.900 ZM74.750,8.084 C74.750,5.405 72.567,3.233 69.875,3.233 L8.125,3.233 C5.433,3.233 3.250,5.405 3.250,8.084 L3.250,45.267 L74.750,45.267 L74.750,8.084 ZM74.750,48.500 L3.250,48.500 L3.250,51.733 C3.250,54.412 5.433,56.584 8.125,56.584 L69.875,56.584 C72.567,56.584 74.750,54.412 74.750,51.733 L74.750,48.500 ZM28.210,16.542 L30.290,19.025 L22.038,25.867 L30.290,32.709 L28.210,35.192 L18.460,27.108 C18.385,27.046 18.316,26.977 18.253,26.902 C17.678,26.216 17.771,25.197 18.460,24.625 L28.210,16.542 ZM43.804,15.029 L37.298,37.649 L34.174,36.760 L40.680,14.139 L43.804,15.029 ZM49.790,16.542 L59.540,24.625 C59.615,24.687 59.684,24.756 59.747,24.831 C60.322,25.517 60.229,26.537 59.540,27.108 L49.790,35.192 L47.710,32.709 L55.962,25.867 L47.710,19.025 L49.790,16.542 ZM6.500,74.367 L52.000,74.367 C52.897,74.367 53.625,75.091 53.625,75.984 L53.625,95.384 C53.625,96.276 52.897,97.000 52.000,97.000 L6.500,97.000 C5.603,97.000 4.875,96.276 4.875,95.384 L4.875,75.984 C4.875,75.091 5.603,74.367 6.500,74.367 ZM8.125,93.767 L50.375,93.767 L50.375,77.600 L8.125,77.600 L8.125,93.767 ZM43.875,87.300 L47.125,87.300 L47.125,90.533 L43.875,90.533 L43.875,87.300 ZM43.875,80.833 L47.125,80.833 L47.125,84.067 L43.875,84.067 L43.875,80.833 ZM17.875,87.300 L40.625,87.300 L40.625,90.533 L17.875,90.533 L17.875,87.300 ZM37.375,80.833 L40.625,80.833 L40.625,84.067 L37.375,84.067 L37.375,80.833 ZM30.875,80.833 L34.125,80.833 L34.125,84.067 L30.875,84.067 L30.875,80.833 ZM24.375,80.833 L27.625,80.833 L27.625,84.067 L24.375,84.067 L24.375,80.833 ZM17.875,80.833 L21.125,80.833 L21.125,84.067 L17.875,84.067 L17.875,80.833 ZM11.375,87.300 L14.625,87.300 L14.625,90.533 L11.375,90.533 L11.375,87.300 ZM11.375,80.833 L14.625,80.833 L14.625,84.067 L11.375,84.067 L11.375,80.833 ZM65.000,74.367 C69.487,74.367 73.125,77.986 73.125,82.450 L73.125,88.917 C73.125,93.381 69.487,97.000 65.000,97.000 C60.513,97.000 56.875,93.381 56.875,88.917 L56.875,82.450 C56.875,77.986 60.513,74.367 65.000,74.367 ZM60.125,88.917 C60.125,91.595 62.308,93.767 65.000,93.767 C67.692,93.767 69.875,91.595 69.875,88.917 L69.875,82.450 C69.875,79.772 67.692,77.600 65.000,77.600 C62.308,77.600 60.125,79.772 60.125,82.450 L60.125,88.917 ZM66.625,84.067 L63.375,84.067 L63.375,80.833 L66.625,80.833 L66.625,84.067 Z" id="svg_1"/></g></svg>