<svg xmlns="http://www.w3.org/2000/svg" width="113.47399139404297" height="150.2196502685547" style=""><rect id="backgroundrect" width="100%" height="100%" x="0" y="0" fill="none" stroke="none" class="selected" style=""/>

 <g style="">
  <title>background</title>
  <rect fill="none" id="canvas_background" height="402" width="582" y="-1" x="-1"/>
 </g>
 <g style="" class="currentLayer">
  <title>Layer 1</title>
  <path id="svg_1" d="m106.76599613479527,61.63117458198592 l0,27.86305590105057 c-0.006712695360183724,5.8655532057285305 -4.7955495653152465,10.618141520738602 -10.704064021348954,10.624854216098784 l-29.275407004833223,0 l3.0569614670276644,10.624854216098784 l6.948982236862183,0 l0,4.250478702068329 l-42.81894116353988,0 l0,-4.250478702068329 l6.950324775934219,0 l3.0569614670276644,-10.624854216098784 l-29.275407004833223,0 c-5.909856995105744,-0.006712695360183724 -10.698693865060807,-4.759301010370255 -10.70540656042099,-10.624854216098784 l0,-57.374749782562255 c0.006712695360183724,-5.864210666656494 4.7955495653152465,-10.618141520738602 10.70540656042099,-10.624854216098784 l0.21480625152587907,0 l0,-14.041616154432296 c0,-1.9064054822921754 1.5586878626346587,-3.4530104932785033 3.4798612747192386,-3.4530104932785033 l74.68410603833198,0 c1.9211734120845807,0 3.4785187356472016,1.5466050109863283 3.4785187356472016,3.4530104932785033 l0,14.067124396800995 c5.6749126574993145,0.26850781440734867 10.196584252119065,4.9029526910781875 10.203296947479247,10.599345973730088 l0,13.64019697189331 c2.830072363853455,1.6298424334526067 4.721709916353226,4.694859134912491 4.6384724938869475,8.188145800352096 c-0.07920980525016792,3.293248343706131 -1.9413114981651312,6.120635629415513 -4.6384724938869475,7.6833511092662805 zm-41.37571166110039,49.11276433324814 l-3.0569614670276644,-10.624854216098784 l-13.899307012796402,0 l-3.058304006099701,10.624854216098784 l20.014572485923768,0 zm-50.47007133507729,-84.99883372879027 l-0.21480625152587907,0 c-3.5483307673931126,0 -6.422706920623779,2.8542380671501157 -6.422706920623779,6.374375514030457 l0,48.87513491749764 l6.637513172149658,0 l0,-55.24951043152809 zm-6.637513172149658,59.49998913359642 l0,4.249136162996292 c0,3.5214799859523778 2.874376153230667,6.375718053102494 6.422706920623779,6.375718053102494 l81.35652522635459,0 c3.546988228321076,0 6.422706920623779,-2.8542380671501157 6.422706920623779,-6.375718053102494 l0,-4.249136162996292 l-94.20193906760215,0 zm94.20193906760215,-4.250478702068329 l0,-18.086686378479005 c-0.17587261843681337,0.009397773504257205 -0.3504026978015902,0.025508242368698156 -0.5289603943824769,0.025508242368698156 l-5.3929794523715975,0 l0,18.061178136110303 l5.921939846754073,0 zm-9.632717841863633,-73.3106885676384 l-74.21958751940727,0 l0,11.049096562862397 l74.21958751940727,0 l0,-11.049096562862397 zm0,14.733023776531219 l-74.21958751940727,0 l0,58.577664791107175 l74.21958751940727,0 l0,-18.061178136110303 l-39.30283133387565,0 l-13.421363103151322,-4.994245347976685 c-1.757383645296097,-0.6538165280818939 -2.9415031068325037,-2.348100836992264 -2.9415031068325037,-4.214230147123337 c0,-1.8661293101310736 1.1841194615364077,-3.560413619041443 2.942845645904541,-4.214230147123337 l13.420020564079286,-4.994245347976685 l39.30283133387565,0 l0,-22.09953566479683 zm-37.110465029239656,33.14997476673126 l0,3.6825846745967867 l33.399687034130096,0 l0,-3.6825846745967867 l-33.399687034130096,0 zm33.399687034130096,-3.6839272136688255 l0,-3.6825846745967867 l-33.399687034130096,0 l0,3.6825846745967867 l33.399687034130096,0 zm-37.110465029239656,6.551590671539307 l0,-9.41925412940979 l-10.59800343465805,3.945722332715988 c-0.32086683821678197,0.11948597741127032 -0.5343305506706235,0.42558488583564846 -0.5343305506706235,0.7639047319889074 c0,0.3396623852252965 0.2134637124538422,0.6444187545776368 0.5316454725265514,0.7639047319889074 l10.600688512802124,3.945722332715988 zm40.82124302434921,-10.234175346136093 l0,11.049096562862397 l3.7107779951095585,0 l0,-11.049096562862397 l-3.7107779951095585,0 zm9.632717841863633,-16.08093300485611 c0,-3.3496349847316744 -2.6125810341835027,-6.066934066534042 -5.921939846754073,-6.324701568365097 l0,18.721707359552383 l5.567509531736374,0 c0.11948597741127032,0 0.23494433760643038,0.013425390720367436 0.35443031501770045,0.018795547008514407 l0,-12.4158013381958 zm-0.35443031501770045,16.08093300485611 l-1.8567315366268167,0 l0,11.049096562862397 l1.8567315366268167,0 c3.0677017796039583,0 5.566166992664337,-2.478327126979828 5.566166992664337,-5.5245482814311995 c0,-3.044878615379333 -2.4984652130603795,-5.5245482814311995 -5.566166992664337,-5.5245482814311995 zm-51.95491954874992,-22.100878203868866 l22.266010509729387,0 l0,14.734366315603255 l-22.266010509729387,0 l0,-14.734366315603255 zm3.7107779951095585,11.050439101934433 l14.84445451951027,0 l0,-7.3665118882656095 l-14.84445451951027,0 l0,7.3665118882656095 zm-31.542955497503282,-11.050439101934433 l22.266010509729387,0 l0,14.734366315603255 l-22.266010509729387,0 l0,-14.734366315603255 zm3.7107779951095585,11.050439101934433 l14.84445451951027,0 l0,-7.3665118882656095 l-14.84445451951027,0 l0,7.3665118882656095 zm9.276944987773895,11.050439101934433 l-12.987722982883453,0 l0,-3.6839272136688255 l12.987722982883453,0 l0,3.6839272136688255 zm-1.8553889975547797,7.3665118882656095 l-11.132333985328675,0 l0,-3.6839272136688255 l11.132333985328675,0 l0,3.6839272136688255 zm1.8553889975547797,7.3665118882656095 l-12.987722982883453,0 l0,-3.6839272136688255 l12.987722982883453,0 l0,3.6839272136688255 zm53.810308546304704,7.3665118882656095 l-66.79803152918817,0 l0,-3.6825846745967867 l66.79803152918817,0 l0,3.6825846745967867 zm-7.421555990219117,7.3665118882656095 l-59.37647553896903,0 l0,-3.6825846745967867 l59.37647553896903,0 l0,3.6825846745967867 zm7.421555990219117,0 l-3.7107779951095585,0 l0,-3.6825846745967867 l3.7107779951095585,0 l0,3.6825846745967867 zm-63.0872535340786,-62.6160223197937 l-3.7107779951095585,0 l0,-3.6839272136688255 l3.7107779951095585,0 l0,3.6839272136688255 zm7.421555990219117,0 l-3.7107779951095585,0 l0,-3.6839272136688255 l3.7107779951095585,0 l0,3.6839272136688255 zm7.422898529291153,0 l-3.712120534181595,0 l0,-3.6839272136688255 l3.712120534181595,0 l0,3.6839272136688255 zm-28.334287115335464,104.19445738077164 l59.947054644584654,0 c1.182776922464371,0 2.1413498198986054,0.9505176630020138 2.1413498198986054,2.1252393510341645 l0,25.498844595193862 c0,1.1733791489601137 -0.9585728974342347,2.1252393510341645 -2.1413498198986054,2.1252393510341645 l-59.947054644584654,0 c-1.182776922464371,0 -2.1413498198986054,-0.9518602020740514 -2.1413498198986054,-2.1252393510341645 l0,-25.498844595193862 c0,-1.1747216880321505 0.9585728974342347,-2.1252393510341645 2.1413498198986054,-2.1252393510341645 zm2.1413498198986054,25.498844595193862 l55.66435500478745,0 l0,-21.24970843219757 l-55.66435500478745,0 l0,21.24970843219757 zm47.10029826426506,-8.499614865064622 l4.282699639797211,0 l0,4.250478702068329 l-4.282699639797211,0 l0,-4.250478702068329 zm0,-8.499614865064622 l4.282699639797211,0 l0,4.250478702068329 l-4.282699639797211,0 l0,-4.250478702068329 zm-34.2548844230175,8.499614865064622 l29.973527322292327,0 l0,4.250478702068329 l-29.973527322292327,0 l0,-4.250478702068329 zm25.692170221567153,-8.499614865064622 l4.281357100725174,0 l0,4.250478702068329 l-4.281357100725174,0 l0,-4.250478702068329 zm-8.564056740522386,0 l4.281357100725174,0 l0,4.250478702068329 l-4.281357100725174,0 l0,-4.250478702068329 zm-8.564056740522386,0 l4.281357100725174,0 l0,4.250478702068329 l-4.281357100725174,0 l0,-4.250478702068329 zm-8.564056740522386,0 l4.281357100725174,0 l0,4.250478702068329 l-4.281357100725174,0 l0,-4.250478702068329 zm-8.564056740522386,8.499614865064622 l4.282699639797211,0 l0,4.250478702068329 l-4.282699639797211,0 l0,-4.250478702068329 zm0,-8.499614865064622 l4.282699639797211,0 l0,4.250478702068329 l-4.282699639797211,0 l0,-4.250478702068329 zm70.65246120500564,-8.499614865064622 c5.911199534177781,0 10.704064021348954,4.7566159322261825 10.704064021348954,10.624854216098784 l0,8.499614865064622 c0,5.868238283872605 -4.792864487171173,10.624854216098784 -10.704064021348954,10.624854216098784 c-5.912542073249817,0 -10.70540656042099,-4.7566159322261825 -10.70540656042099,-10.624854216098784 l0,-8.499614865064622 c0,-5.868238283872605 4.792864487171173,-10.624854216098784 10.70540656042099,-10.624854216098784 zm-6.424049459695817,19.124469081163404 c0,3.5214799859523778 2.8757186923027036,6.374375514030457 6.424049459695817,6.374375514030457 c3.546988228321076,0 6.422706920623779,-2.8528955280780792 6.422706920623779,-6.374375514030457 l0,-8.499614865064622 c0,-3.5214799859523778 -2.8757186923027036,-6.375718053102494 -6.422706920623779,-6.375718053102494 c-3.5483307673931126,0 -6.424049459695817,2.8542380671501157 -6.424049459695817,6.375718053102494 l0,8.499614865064622 zm8.564056740522386,-6.374375514030457 l-4.281357100725174,0 l0,-4.250478702068329 l4.281357100725174,0 l0,4.250478702068329 z" fill="rgb(235, 134, 136)" fill-rule="evenodd" class=""/>
 </g>
</svg>