<svg 
 xmlns="http://www.w3.org/2000/svg"
 xmlns:xlink="http://www.w3.org/1999/xlink"
 width="2.822cm" height="3.81cm">
<path fill-rule="evenodd"  fill="rgb(235, 134, 136)"
 d="M76.546,42.927 L76.546,63.681 C76.541,68.050 72.974,71.590 68.573,71.595 L46.767,71.595 L49.044,79.509 L54.220,79.509 L54.220,82.675 L22.326,82.675 L22.326,79.509 L27.503,79.509 L29.780,71.595 L7.974,71.595 C3.572,71.590 0.005,68.050 0.000,63.681 L0.000,20.945 C0.005,16.577 3.572,13.036 7.974,13.031 L8.134,13.031 L8.134,2.572 C8.134,1.152 9.295,0.000 10.726,0.000 L66.355,0.000 C67.786,0.000 68.946,1.152 68.946,2.572 L68.946,13.050 C73.173,13.250 76.541,16.702 76.546,20.945 L76.546,31.105 C78.654,32.319 80.063,34.602 80.001,37.204 C79.942,39.657 78.555,41.763 76.546,42.927 ZM45.727,79.509 L43.450,71.595 L33.097,71.595 L30.819,79.509 L45.727,79.509 ZM8.134,16.197 L7.974,16.197 C5.331,16.197 3.190,18.323 3.190,20.945 L3.190,57.350 L8.134,57.350 L8.134,16.197 ZM3.190,60.516 L3.190,63.681 C3.190,66.304 5.331,68.430 7.974,68.430 L68.573,68.430 C71.215,68.430 73.357,66.304 73.357,63.681 L73.357,60.516 L3.190,60.516 ZM73.357,57.350 L73.357,43.878 C73.226,43.885 73.096,43.897 72.963,43.897 L68.946,43.897 L68.946,57.350 L73.357,57.350 ZM66.182,2.744 L10.899,2.744 L10.899,10.974 L66.182,10.974 L66.182,2.744 ZM66.182,13.718 L10.899,13.718 L10.899,57.350 L66.182,57.350 L66.182,43.897 L36.907,43.897 L26.910,40.177 C25.601,39.690 24.719,38.428 24.719,37.038 C24.719,35.648 25.601,34.386 26.911,33.899 L36.907,30.179 L66.182,30.179 L66.182,13.718 ZM38.540,38.410 L38.540,41.153 L63.418,41.153 L63.418,38.410 L38.540,38.410 ZM63.418,35.666 L63.418,32.923 L38.540,32.923 L38.540,35.666 L63.418,35.666 ZM35.776,40.546 L35.776,33.530 L27.882,36.469 C27.643,36.558 27.484,36.786 27.484,37.038 C27.484,37.291 27.643,37.518 27.880,37.607 L35.776,40.546 ZM66.182,32.923 L66.182,41.153 L68.946,41.153 L68.946,32.923 L66.182,32.923 ZM73.357,20.945 C73.357,18.450 71.411,16.426 68.946,16.234 L68.946,30.179 L73.093,30.179 C73.182,30.179 73.268,30.189 73.357,30.193 L73.357,20.945 ZM73.093,32.923 L71.710,32.923 L71.710,41.153 L73.093,41.153 C75.378,41.153 77.239,39.307 77.239,37.038 C77.239,34.770 75.378,32.923 73.093,32.923 ZM34.394,16.461 L50.979,16.461 L50.979,27.436 L34.394,27.436 L34.394,16.461 ZM37.158,24.692 L48.215,24.692 L48.215,19.205 L37.158,19.205 L37.158,24.692 ZM13.663,16.461 L30.248,16.461 L30.248,27.436 L13.663,27.436 L13.663,16.461 ZM16.427,24.692 L27.484,24.692 L27.484,19.205 L16.427,19.205 L16.427,24.692 ZM23.337,32.923 L13.663,32.923 L13.663,30.179 L23.337,30.179 L23.337,32.923 ZM21.955,38.410 L13.663,38.410 L13.663,35.666 L21.955,35.666 L21.955,38.410 ZM23.337,43.897 L13.663,43.897 L13.663,41.153 L23.337,41.153 L23.337,43.897 ZM63.418,49.384 L13.663,49.384 L13.663,46.641 L63.418,46.641 L63.418,49.384 ZM57.890,54.871 L13.663,54.871 L13.663,52.128 L57.890,52.128 L57.890,54.871 ZM63.418,54.871 L60.654,54.871 L60.654,52.128 L63.418,52.128 L63.418,54.871 ZM16.427,8.231 L13.663,8.231 L13.663,5.487 L16.427,5.487 L16.427,8.231 ZM21.955,8.231 L19.191,8.231 L19.191,5.487 L21.955,5.487 L21.955,8.231 ZM27.484,8.231 L24.719,8.231 L24.719,5.487 L27.484,5.487 L27.484,8.231 ZM6.379,85.841 L51.031,85.841 C51.912,85.841 52.626,86.549 52.626,87.424 L52.626,106.417 C52.626,107.291 51.912,108.000 51.031,108.000 L6.379,108.000 C5.498,108.000 4.784,107.291 4.784,106.417 L4.784,87.424 C4.784,86.549 5.498,85.841 6.379,85.841 ZM7.974,104.834 L49.436,104.834 L49.436,89.006 L7.974,89.006 L7.974,104.834 ZM43.057,98.503 L46.247,98.503 L46.247,101.669 L43.057,101.669 L43.057,98.503 ZM43.057,92.172 L46.247,92.172 L46.247,95.338 L43.057,95.338 L43.057,92.172 ZM17.542,98.503 L39.868,98.503 L39.868,101.669 L17.542,101.669 L17.542,98.503 ZM36.679,92.172 L39.868,92.172 L39.868,95.338 L36.679,95.338 L36.679,92.172 ZM30.300,92.172 L33.489,92.172 L33.489,95.338 L30.300,95.338 L30.300,92.172 ZM23.921,92.172 L27.110,92.172 L27.110,95.338 L23.921,95.338 L23.921,92.172 ZM17.542,92.172 L20.731,92.172 L20.731,95.338 L17.542,95.338 L17.542,92.172 ZM11.163,98.503 L14.353,98.503 L14.353,101.669 L11.163,101.669 L11.163,98.503 ZM11.163,92.172 L14.353,92.172 L14.353,95.338 L11.163,95.338 L11.163,92.172 ZM63.789,85.841 C68.192,85.841 71.762,89.384 71.762,93.755 L71.762,100.086 C71.762,104.457 68.192,108.000 63.789,108.000 C59.385,108.000 55.815,104.457 55.815,100.086 L55.815,93.755 C55.815,89.384 59.385,85.841 63.789,85.841 ZM59.004,100.086 C59.004,102.709 61.146,104.834 63.789,104.834 C66.431,104.834 68.573,102.709 68.573,100.086 L68.573,93.755 C68.573,91.132 66.431,89.006 63.789,89.006 C61.146,89.006 59.004,91.132 59.004,93.755 L59.004,100.086 ZM65.383,95.338 L62.194,95.338 L62.194,92.172 L65.383,92.172 L65.383,95.338 Z"/>
</svg>