<svg xmlns="http://www.w3.org/2000/svg" xmlns:xlink="http://www.w3.org/1999/xlink" width="79.72254362026342" height="98.94219686318331"><rect id="backgroundrect" width="100%" height="100%" x="0" y="0" fill="none" stroke="none" class="selected" style=""/>

<g class="currentLayer" style=""><title>Layer 1</title><path fill-rule="evenodd" fill="rgb(235, 134, 136)" d="M69.875,59.817 L47.655,59.817 L49.975,67.900 L55.250,67.900 L55.250,71.134 L22.750,71.134 L22.750,67.900 L28.025,67.900 L30.345,59.817 L8.125,59.817 C3.640,59.812 0.005,56.196 -0.000,51.734 L-0.000,8.083 C0.005,3.621 3.640,0.005 8.125,0.000 L69.875,0.000 C74.360,0.005 77.995,3.621 78.000,8.083 L78.000,51.734 C77.995,56.196 74.360,59.812 69.875,59.817 ZM46.595,67.900 L44.275,59.817 L33.725,59.817 L31.405,67.900 L46.595,67.900 ZM74.750,8.083 C74.750,5.405 72.567,3.234 69.875,3.234 L8.125,3.234 C5.433,3.234 3.250,5.405 3.250,8.083 L3.250,45.267 L74.750,45.267 L74.750,8.083 ZM74.750,48.500 L3.250,48.500 L3.250,51.734 C3.250,54.412 5.433,56.583 8.125,56.583 L69.875,56.583 C72.567,56.583 74.750,54.412 74.750,51.734 L74.750,48.500 ZM13.971,16.123 L15.651,16.123 C16.347,16.123 16.611,16.267 16.731,16.843 L18.699,25.795 C18.747,26.011 18.867,27.068 19.083,29.012 L19.227,29.012 C19.275,27.908 19.443,26.827 19.707,25.795 L22.132,16.915 C22.300,16.339 22.564,16.195 23.212,16.195 L24.508,16.195 C25.180,16.195 25.468,16.339 25.588,16.915 L27.964,25.795 C28.252,26.900 28.420,27.980 28.468,29.012 L28.612,29.012 C28.684,27.980 28.828,26.900 29.044,25.819 L30.965,16.843 C31.085,16.267 31.349,16.123 32.045,16.123 L33.509,16.123 C34.061,16.123 34.205,16.363 34.037,16.915 L30.076,32.492 C29.956,33.044 29.668,33.164 29.068,33.164 L27.748,33.164 C27.172,33.164 26.836,32.948 26.740,32.516 L24.220,22.987 C23.980,22.051 23.860,21.163 23.836,20.275 L23.668,20.275 C23.644,21.115 23.524,22.027 23.260,22.963 L20.716,32.492 C20.596,33.044 20.308,33.164 19.707,33.164 L18.411,33.164 C17.811,33.164 17.499,33.020 17.379,32.516 L13.443,16.915 C13.275,16.363 13.395,16.123 13.971,16.123 ZM36.243,28.436 L37.539,27.980 C38.115,27.787 38.331,27.908 38.595,28.484 C39.171,30.044 40.011,30.716 42.219,30.716 C44.235,30.716 45.244,29.900 45.244,28.268 C45.244,26.659 44.403,25.867 42.747,25.867 L40.251,25.867 C39.651,25.867 39.435,25.699 39.435,25.051 L39.435,23.971 C39.435,23.371 39.651,23.155 40.251,23.155 L42.315,23.155 C43.851,23.155 44.836,22.267 44.836,20.899 C44.836,19.339 43.947,18.571 42.147,18.571 C40.059,18.571 39.315,19.171 38.739,20.779 C38.523,21.355 38.283,21.475 37.683,21.283 L36.387,20.827 C35.859,20.635 35.691,20.275 35.859,19.771 C36.795,17.083 38.715,15.763 42.195,15.763 C45.772,15.763 47.836,17.587 47.836,20.635 C47.836,22.339 47.212,23.539 45.964,24.259 C47.572,25.003 48.388,26.348 48.388,28.316 C48.388,31.508 46.276,33.524 42.219,33.524 C38.835,33.524 36.651,32.180 35.715,29.492 C35.547,28.988 35.715,28.628 36.243,28.436 ZM57.195,15.763 C60.603,15.763 62.788,17.107 63.724,19.771 C63.916,20.275 63.748,20.635 63.220,20.827 L61.899,21.283 C61.323,21.475 61.083,21.355 60.867,20.779 C60.339,19.315 59.115,18.571 57.195,18.571 C54.723,18.571 53.355,19.771 53.355,21.979 L53.355,27.283 C53.355,29.492 54.723,30.716 57.195,30.716 C59.091,30.716 60.315,29.972 60.867,28.484 C61.131,27.884 61.347,27.764 61.924,27.980 L63.220,28.436 C63.748,28.628 63.916,28.988 63.748,29.492 C62.812,32.180 60.627,33.524 57.195,33.524 C52.803,33.524 50.331,31.172 50.331,27.260 L50.331,22.003 C50.331,18.139 52.803,15.763 57.195,15.763 ZM6.500,74.367 L52.000,74.367 C52.897,74.367 53.625,75.091 53.625,75.983 L53.625,95.383 C53.625,96.276 52.897,97.000 52.000,97.000 L6.500,97.000 C5.603,97.000 4.875,96.276 4.875,95.383 L4.875,75.983 C4.875,75.091 5.603,74.367 6.500,74.367 ZM8.125,93.767 L50.375,93.767 L50.375,77.600 L8.125,77.600 L8.125,93.767 ZM43.875,87.300 L47.125,87.300 L47.125,90.534 L43.875,90.534 L43.875,87.300 ZM43.875,80.834 L47.125,80.834 L47.125,84.067 L43.875,84.067 L43.875,80.834 ZM17.875,87.300 L40.625,87.300 L40.625,90.534 L17.875,90.534 L17.875,87.300 ZM37.375,80.834 L40.625,80.834 L40.625,84.067 L37.375,84.067 L37.375,80.834 ZM30.875,80.834 L34.125,80.834 L34.125,84.067 L30.875,84.067 L30.875,80.834 ZM24.375,80.834 L27.625,80.834 L27.625,84.067 L24.375,84.067 L24.375,80.834 ZM17.875,80.834 L21.125,80.834 L21.125,84.067 L17.875,84.067 L17.875,80.834 ZM11.375,87.300 L14.625,87.300 L14.625,90.534 L11.375,90.534 L11.375,87.300 ZM11.375,80.834 L14.625,80.834 L14.625,84.067 L11.375,84.067 L11.375,80.834 ZM65.000,74.367 C69.487,74.367 73.125,77.986 73.125,82.450 L73.125,88.917 C73.125,93.381 69.487,97.000 65.000,97.000 C60.513,97.000 56.875,93.381 56.875,88.917 L56.875,82.450 C56.875,77.986 60.513,74.367 65.000,74.367 ZM60.125,88.917 C60.125,91.595 62.308,93.767 65.000,93.767 C67.692,93.767 69.875,91.595 69.875,88.917 L69.875,82.450 C69.875,79.771 67.692,77.600 65.000,77.600 C62.308,77.600 60.125,79.771 60.125,82.450 L60.125,88.917 ZM66.625,84.067 L63.375,84.067 L63.375,80.834 L66.625,80.834 L66.625,84.067 Z" id="svg_1"/></g></svg>